<svg xmlns="http://www.w3.org/2000/svg" viewBox="0 0 384 461.78"><defs><style>.cls-1{fill:#3ddc84;}</style></defs><title>Asset 2pratksinglecolor</title><g id="Layer_2" data-name="Layer 2"><g id="Layer_1-2" data-name="Layer 1"><path class="cls-1" d="M239.88,282.31H211.06V248.74l-.48.25v33.74H239.4q22.6,0,34.78-10.37Q262,282.31,239.88,282.31Zm17.38-83a99.13,99.13,0,0,1-23.61,33.61c-.83.78-1.68,1.54-2.54,2.29,1-.87,2-1.78,3-2.7a98.92,98.92,0,0,0,23.39-33.12h0Z"/><path class="cls-1" d="M344.31,152.34q-29.67-24-79-30Q258,84.75,227.87,60.39q-24.8-20.05-63.38-27.58L183.92,6a3.74,3.74,0,0,0,.38-3.75A3.84,3.84,0,0,0,183.08.71a3.77,3.77,0,0,0-5.26.85l-21.6,29.82a280.72,280.72,0,0,0-43.09-3.09q-8.41,0-16.8.37L76.71,1.56A3.76,3.76,0,1,0,70.61,6L87.4,29.16q-11,.75-21.86,2.12A202.93,202.93,0,0,0,23.4,40.81q-10.89,3.81-17.14,10T0,68.55V324.7q0,14.15,3.27,22.83a29.4,29.4,0,0,0,9.78,13.6,39.13,39.13,0,0,0,16,6.81,114.79,114.79,0,0,0,22,1.9,197.58,197.58,0,0,0,25.29-1.65,150,150,0,0,0,18.76-3.25V264.88h21.27V416.65c0,9.43,1.07,17,3.27,22.83a29.33,29.33,0,0,0,9.78,13.6,39.13,39.13,0,0,0,16,6.8,113.85,113.85,0,0,0,22,1.9,199.39,199.39,0,0,0,25.29-1.64,151.94,151.94,0,0,0,18.76-3.25V356.83h38.62q33.16,0,58.45-8.44t41.89-23.94a99.87,99.87,0,0,0,25-37Q384,266,384,239.35,384,184.42,344.31,152.34Zm-207-59.47a10.54,10.54,0,1,1,.18,8A10.52,10.52,0,0,1,137.35,92.87Zm-39.19,0a10.54,10.54,0,1,1,.18,8A10.52,10.52,0,0,1,98.16,92.87Zm59.42,103.52a34.46,34.46,0,0,1-10.17,8q-9.07,4.76-21.66,4.76-21.75,0-32.36-12.23t-10.6-35.08V133h84.3a93.2,93.2,0,0,1,1.37,11.7c.17,3.81.27,8.6.27,14.41Q168.73,183.62,157.58,196.39ZM275,271.71l-.45.38-.05,0-.28.23Q262,282.72,239.4,282.73H210.58V249l.48-.25v-.17A104.51,104.51,0,0,0,229,237l1.08-.89,1.07-.91c.86-.75,1.71-1.51,2.54-2.29a99.13,99.13,0,0,0,23.61-33.61l.26.07c.08-.16.15-.32.22-.48a42.37,42.37,0,0,1,16.69,8.63q12.76,11.16,12.77,31.83Q287.2,261.1,275,271.71Z"/><path class="cls-1" d="M257.52,199.37h0a98.92,98.92,0,0,1-23.39,33.12c-1,.92-2,1.83-3,2.7.86-.75,1.71-1.51,2.54-2.29a99.13,99.13,0,0,0,23.61-33.61Z"/><path class="cls-1" d="M274.18,272.36Q262,282.72,239.4,282.73H210.58V249l.48-.25v33.57h28.82Q262,282.31,274.18,272.36Z"/></g></g></svg>